<?xml version="1.0" encoding="utf-8"?>
<!-- Generator: Adobe Illustrator 16.0.0, SVG Export Plug-In . SVG Version: 6.00 Build 0)  -->
<!DOCTYPE svg PUBLIC "-//W3C//DTD SVG 1.1//EN" "http://www.w3.org/Graphics/SVG/1.1/DTD/svg11.dtd">
<svg version="1.1" id="Capa_1" xmlns="http://www.w3.org/2000/svg" xmlns:xlink="http://www.w3.org/1999/xlink" x="0px" y="0px"
	 width="64px" height="64px" viewBox="0 0 64 64" enable-background="new 0 0 64 64" xml:space="preserve">
<g id="Like_2">
	<path fill="#95C730" d="M55.253,35.377c2.739,0.125,5.063-2.033,5.185-4.821c0.119-2.788-1.807-5.294-4.549-5.415l-18.202-2.285
		c0,0,3.794-6.345,3.794-15.746c0-6.267-4.478-7.11-7.111-7.11c-2.071-0.001-2.628,4.013-2.628,4.013h-0.004
		c-0.469,2.573-1.08,4.821-3.202,8.958c-2.375,4.638-5.611,4.203-9.388,8.333c-0.667,0.728-1.562,1.928-2.436,3.406
		c-0.071,0.078-0.138,0.188-0.202,0.341c-0.078,0.183-0.171,0.311-0.253,0.48c-0.145,0.266-0.287,0.531-0.427,0.81
		c-2.337,2.338-5.979,2.099-7.53,2.099c-3.111,0-4.74,1.808-4.74,4.74L3.558,54.852c0,3.29,1.346,4.399,4.741,4.399h4.74
		c2.386,0,4.255,1.368,7.11,2.37c3.911,1.355,9.751,2.372,19.813,2.372c1.759,0,7.217,0.007,7.217,0.007
		c1.67,0,3.013-0.764,3.98-1.686c0.369-0.35,0.754-0.859,0.918-1.852c0.027-0.154,0.056-0.8,0.051-0.887
		c0.127-2.842-1.59-3.869-2.563-4.193c0.026-0.01,0.009-0.033,0.062-0.031l3.09,0.138c2.741,0.125,5.447-1.85,5.447-5.209
		c0-2.785-2.258-4.749-4.99-4.883l1.638,0.075c2.741,0.121,5.06-2.037,5.187-4.824C60.117,37.86,57.992,35.502,55.253,35.377z"/>
</g>
</svg>
